# xmcd CD database file generated by OrangeCD 5.0
#
# Track frame offsets:
#	150
#	24600
#	42547
#	69497
#	89565
#	110307
#	131452
#	142930
#	164382
#	180385
#	196970
#	212982
#
# Disc length: 3008 seconds
#
# Revision: 0
# Processed by: cddbd v1.4PL0 Copyright (c) Steve Scherf et al.
# Submitted via: OrangeCD 5.0
#
DISCID=a90bbe0c
DTITLE=Michael de Jong - Grown Man Moan
DYEAR=1998
DGENRE=Blues
TTITLE0=Vienna Breakdown
TTITLE1=Between You And Me
TTITLE2=Mean Old World
TTITLE3=Grown Man Moan
TTITLE4=St. Peter's Got The Blues
TTITLE5=Drowning And Drowning
TTITLE6=Jailhouse Letter
TTITLE7=(This Time) I Won't Cry
TTITLE8=Mind If I Pass
TTITLE9=Wondering When She's Coming Home
TTITLE10=Slow, Slow Loving
TTITLE11=Good Byes
EXTD=
EXTT0=
EXTT1=
EXTT2=
EXTT3=
EXTT4=
EXTT5=
EXTT6=
EXTT7=
EXTT8=
EXTT9=
EXTT10=
EXTT11=
PLAYORDER=
